<svg width="960" height="720" viewBox="0 0 960 720" fill="none" xmlns="http://www.w3.org/2000/svg">
  <defs>
    <linearGradient id="bg" x1="0" y1="0" x2="1" y2="1">
      <stop offset="0%" stop-color="#f5f3ff" />
      <stop offset="100%" stop-color="#ede9fe" />
    </linearGradient>
    <linearGradient id="card" x1="0" y1="0" x2="1" y2="1">
      <stop offset="0%" stop-color="#ffffff" />
      <stop offset="100%" stop-color="#f8fafc" />
    </linearGradient>
  </defs>
  <rect width="960" height="720" rx="40" fill="url(#bg)" />
  <rect x="120" y="80" width="720" height="560" rx="32" fill="url(#card)" stroke="#e2e8f0" stroke-width="2" />
  <rect x="180" y="140" width="240" height="28" rx="14" fill="#c4b5fd" />
  <rect x="180" y="184" width="360" height="16" rx="8" fill="#e2e8f0" />
  <rect x="180" y="210" width="300" height="16" rx="8" fill="#e2e8f0" />
  <rect x="180" y="250" width="600" height="18" rx="9" fill="#d8b4fe" />
  <rect x="180" y="282" width="540" height="14" rx="7" fill="#e2e8f0" />
  <rect x="180" y="306" width="520" height="14" rx="7" fill="#e2e8f0" />
  <rect x="180" y="330" width="480" height="14" rx="7" fill="#e2e8f0" />
  <rect x="180" y="380" width="240" height="18" rx="9" fill="#d8b4fe" />
  <rect x="180" y="412" width="520" height="14" rx="7" fill="#e2e8f0" />
  <rect x="180" y="436" width="480" height="14" rx="7" fill="#e2e8f0" />
  <rect x="180" y="460" width="500" height="14" rx="7" fill="#e2e8f0" />
  <rect x="180" y="510" width="240" height="18" rx="9" fill="#d8b4fe" />
  <rect x="180" y="542" width="520" height="14" rx="7" fill="#e2e8f0" />
  <rect x="180" y="566" width="480" height="14" rx="7" fill="#e2e8f0" />
</svg>
